<?xml version="1.0" standalone="no"?>
<!DOCTYPE svg PUBLIC "-//W3C//DTD SVG 20010904//EN"
 "http://www.w3.org/TR/2001/REC-SVG-20010904/DTD/svg10.dtd">
<svg version="1.0" xmlns="http://www.w3.org/2000/svg"
 width="463.000000pt" height="473.000000pt" viewBox="0 0 463.000000 473.000000"
 preserveAspectRatio="xMidYMid meet">

<g transform="translate(0.000000,473.000000) scale(0.100000,-0.100000)"
fill="#000000" stroke="none">
<path d="M0 2365 l0 -2365 2315 0 2315 0 0 2365 0 2365 -2315 0 -2315 0 0
-2365z m2611 1844 c76 -78 292 -296 479 -486 188 -190 339 -347 336 -350 -3
-3 -141 129 -306 293 -439 436 -644 634 -655 634 -16 0 -88 -76 -84 -88 2 -6
144 -152 314 -325 479 -485 539 -547 532 -553 -3 -3 -12 5 -21 18 l-15 23
-276 -2 c-214 -2 -275 0 -276 10 0 6 -4 3 -9 -8 -7 -15 -9 -8 -11 30 -2 48 -3
49 -6 10 -3 -22 -10 -43 -16 -47 -9 -5 -13 -83 -15 -275 -2 -147 -5 -274 -7
-281 -4 -12 -41 9 -90 50 -6 5 -12 111 -15 257 l-5 249 -222 -162 -222 -161 0
-727 -1 -728 -50 0 -50 0 0 758 0 759 63 47 c34 26 110 83 170 127 101 76 125
98 93 86 -8 -3 -17 -3 -20 0 -8 9 -685 10 -680 2 2 -4 -7 -14 -21 -23 -30 -20
-2 8 -550 -531 -402 -395 -495 -480 -495 -449 0 4 168 177 373 383 206 207
427 432 493 500 65 68 127 131 137 140 9 8 17 20 17 25 0 5 -13 -3 -30 -19
-29 -28 -53 -31 -28 -3 52 56 56 67 12 28 -75 -66 -94 -81 -94 -70 0 5 6 13
13 17 18 12 49 63 38 63 -6 0 -20 -13 -32 -29 -13 -17 -27 -27 -36 -24 -9 4
-16 -2 -20 -15 -3 -11 -11 -23 -19 -26 -11 -4 -12 -2 -5 12 5 9 223 233 485
497 l475 480 45 -44 45 -44 53 55 c29 30 57 56 62 57 5 0 71 -62 147 -140z
m-1181 -847 c0 -5 -9 -17 -20 -27 -23 -21 -26 -14 -8 15 13 20 28 27 28 12z
m780 -3 c0 -13 -29 -17 -38 -6 -8 9 -4 12 14 12 13 0 24 -3 24 -6z m1545 -301
c471 -464 695 -688 695 -693 0 -3 -7 -5 -17 -5 -9 0 -86 71 -171 158 -85 86
-305 308 -488 494 -184 185 -334 340 -334 344 0 11 40 -27 315 -298z m-2183
270 c-7 -7 -12 -8 -12 -2 0 14 12 26 19 19 2 -3 -1 -11 -7 -17z m-292 -8 c0
-5 -5 -10 -11 -10 -5 0 -7 5 -4 10 3 6 8 10 11 10 2 0 4 -4 4 -10z m60 0 c0
-5 -5 -10 -11 -10 -5 0 -7 5 -4 10 3 6 8 10 11 10 2 0 4 -4 4 -10z m1110 0 c0
-5 -5 -10 -11 -10 -5 0 -7 5 -4 10 3 6 8 10 11 10 2 0 4 -4 4 -10z m805 0 c3
-5 1 -10 -4 -10 -6 0 -11 5 -11 10 0 6 2 10 4 10 3 0 8 -4 11 -10z m-1025
-654 c3 0 15 6 26 12 20 10 22 8 28 -20 3 -17 6 -264 6 -549 l0 -519 -45 0
-45 0 0 453 c0 440 8 713 20 652 3 -16 7 -30 10 -29z m295 34 c3 -5 1 -10 -4
-10 -6 0 -11 5 -11 10 0 6 2 10 4 10 3 0 8 -4 11 -10z m-45 -22 c0 -4 7 -5 15
-2 8 4 23 0 32 -7 13 -11 17 -11 20 -2 5 14 28 5 55 -19 8 -7 21 -17 30 -23 9
-5 59 -41 111 -80 l94 -69 7 -111 c3 -60 6 -260 6 -442 l0 -333 -50 0 -51 0 2
417 1 417 -33 29 c-19 16 -92 74 -164 129 -71 55 -132 102 -134 104 -2 2 10 2
28 1 17 -1 31 -5 31 -9z m-794 -358 c-12 -8 -26 -19 -32 -25 -17 -15 -42 -34
-122 -94 l-72 -55 0 -278 0 -278 -45 0 -45 0 0 299 0 300 33 23 c17 12 37 26
42 31 15 12 128 92 144 102 10 6 12 4 7 -6 -4 -8 -1 -6 7 4 19 22 30 22 22 -2
-3 -12 0 -21 10 -25 10 -3 15 -1 13 7 -2 7 4 20 12 29 14 15 16 15 31 -1 15
-15 14 -17 -5 -31z m44 40 c0 -5 -2 -10 -4 -10 -3 0 -8 5 -11 10 -3 6 -1 10 4
10 6 0 11 -4 11 -10z m1329 -160 l90 -65 -2 -275 -2 -274 -27 1 c-16 1 -35 1
-43 2 -13 1 -15 35 -15 241 l0 240 -55 43 -55 42 0 58 c0 32 4 57 9 55 5 -1
50 -32 100 -68z m-1621 -752 c2 -13 -3 -18 -17 -18 -12 0 -21 5 -21 10 0 15
-33 12 -58 -6 -19 -13 -22 -24 -22 -79 0 -53 3 -66 19 -75 28 -14 58 -12 65 5
7 20 36 8 36 -16 0 -17 -8 -19 -59 -19 -77 0 -91 17 -91 110 0 94 15 112 88
108 45 -2 58 -7 60 -20z m82 -89 c0 -97 -2 -110 -16 -107 -14 3 -17 16 -15 89
2 67 -1 90 -13 102 -23 22 -20 27 14 27 l30 0 0 -111z m180 90 c0 -16 -4 -19
-17 -14 -10 3 -22 7 -28 8 -6 1 -11 -38 -13 -95 l-3 -98 -29 0 c-30 0 -41 15
-18 22 7 3 13 29 14 69 3 91 -1 102 -37 94 -25 -6 -29 -4 -29 14 0 20 6 21 80
21 75 0 80 -1 80 -21z m171 -91 l38 -108 -29 0 c-25 0 -29 3 -27 28 2 25 -1
27 -39 30 -30 2 -43 -1 -47 -12 -4 -9 -2 -18 3 -21 20 -12 9 -25 -21 -25 -26
0 -30 3 -24 18 4 9 20 59 37 110 26 81 32 93 50 90 16 -2 29 -25 59 -110z
m203 96 c20 -20 21 -78 1 -98 -20 -20 -19 -38 5 -69 25 -31 25 -37 2 -37 -11
0 -26 16 -40 45 -17 36 -27 45 -47 45 -23 0 -25 -4 -25 -45 0 -41 -2 -45 -25
-45 -14 0 -25 5 -25 10 0 6 5 10 10 10 6 0 10 40 10 100 l0 100 59 0 c41 0 65
-5 75 -16z m166 8 c0 -4 -5 -13 -10 -18 -6 -6 -10 -42 -8 -84 3 -71 4 -74 30
-81 16 -4 30 -3 34 2 11 18 44 10 44 -11 0 -18 -7 -20 -58 -20 -32 0 -63 5
-70 12 -8 8 -12 47 -12 110 0 98 0 98 25 98 14 0 25 -4 25 -8z m160 -102 c0
-91 -3 -110 -15 -110 -12 0 -15 18 -15 100 0 60 -4 100 -10 100 -5 0 -10 5
-10 10 0 6 11 10 25 10 l25 0 0 -110z m171 100 c20 -11 26 -54 10 -79 -6 -10
-5 -22 5 -35 18 -27 18 -61 -2 -80 -11 -12 -35 -16 -85 -16 -63 0 -85 9 -59
25 6 3 10 42 10 85 0 43 -4 82 -10 85 -5 3 -10 10 -10 16 0 12 116 12 141 -1z
m191 -7 c25 -22 24 -77 -2 -101 l-20 -19 25 -37 c30 -45 30 -46 4 -46 -14 0
-26 13 -40 45 -16 36 -25 45 -44 45 -23 0 -25 -4 -25 -45 0 -41 -2 -45 -25
-45 -25 0 -33 14 -15 25 6 3 10 48 10 101 l0 94 57 0 c38 0 62 -5 75 -17z
m209 0 c9 -10 14 -42 14 -93 0 -97 -9 -110 -80 -110 -72 0 -90 21 -90 104 0
42 6 70 18 89 15 24 24 27 71 27 38 0 58 -5 67 -17z m189 3 c0 -21 -20 -30
-33 -17 -6 6 -19 11 -28 11 -18 0 -49 -25 -49 -40 0 -19 34 -40 65 -40 38 0
55 -20 55 -64 0 -39 -25 -56 -84 -56 -57 0 -67 5 -59 26 6 16 33 19 33 4 0
-15 56 -12 70 5 23 27 8 49 -42 59 -35 7 -49 15 -57 34 -12 25 -7 56 11 80 15
18 118 16 118 -2z m-1002 -189 c2 -12 -3 -17 -17 -17 -12 0 -21 6 -21 13 0 31
32 34 38 4z m617 -196 c7 -12 -12 -24 -25 -16 -11 7 -4 25 10 25 5 0 11 -4 15
-9z m45 -7 c0 -9 -5 -14 -12 -12 -18 6 -21 28 -4 28 9 0 16 -7 16 -16z m-945
-15 c4 -5 -1 -19 -10 -29 -13 -15 -16 -31 -12 -66 7 -62 24 -77 98 -82 58 -4
62 -3 54 14 -14 31 -18 114 -6 114 6 0 11 -13 11 -30 0 -44 20 -78 53 -89 16
-6 33 -8 38 -5 5 3 9 32 9 65 0 46 3 59 15 59 12 0 15 -14 15 -65 l0 -65 41 0
42 0 -5 65 c-5 59 -4 65 13 65 17 0 19 -8 19 -75 l0 -75 -181 0 -181 0 -29 29
c-26 27 -29 36 -29 99 0 38 3 72 7 75 10 10 31 8 38 -4z m445 -9 c0 -11 -4
-20 -10 -20 -5 0 -10 -23 -10 -50 0 -71 29 -100 101 -100 l52 0 -5 65 c-5 59
-4 65 13 65 17 0 19 -8 19 -65 l0 -65 55 0 55 0 0 50 c0 28 -4 50 -10 50 -5 0
-10 7 -10 15 0 9 9 15 25 15 24 0 25 -2 25 -65 l0 -65 99 0 c56 0 103 4 106
10 4 6 -8 10 -30 10 -70 0 -104 41 -84 100 19 53 84 68 126 28 19 -18 23 -32
23 -79 0 -96 21 -89 -262 -89 -320 0 -318 -1 -318 129 0 37 3 71 7 74 13 14
33 6 33 -13z m630 -90 l0 -100 -25 0 c-27 0 -35 24 -10 34 12 4 15 24 15 86 0
47 4 80 10 80 6 0 10 -40 10 -100z m-360 80 c0 -5 -7 -10 -15 -10 -8 0 -15 5
-15 10 0 6 7 10 15 10 8 0 15 -4 15 -10z m50 0 c0 -5 -7 -10 -15 -10 -8 0 -15
5 -15 10 0 6 7 10 15 10 8 0 15 -4 15 -10z m-960 -31 c0 -5 -7 -9 -15 -9 -15
0 -20 12 -9 23 8 8 24 -1 24 -14z m60 0 c0 -5 -7 -9 -15 -9 -15 0 -20 12 -9
23 8 8 24 -1 24 -14z m-110 -4 c0 -3 -10 -19 -22 -35 -18 -25 -20 -34 -10 -54
14 -31 39 -38 117 -34 l60 3 3 39 c2 21 -1 43 -7 49 -18 18 -13 37 9 37 18 0
20 -7 20 -75 l0 -75 -89 0 c-74 0 -92 3 -115 21 -33 26 -35 73 -4 106 20 22
38 30 38 18z m1313 -165 c-26 -11 -31 -30 -8 -30 8 0 15 -4 15 -10 0 -5 -11
-10 -25 -10 -17 0 -25 5 -25 18 0 24 19 42 45 41 19 0 19 -1 -2 -9z m-473 -10
c0 -5 -7 -10 -15 -10 -8 0 -15 5 -15 10 0 6 7 10 15 10 8 0 15 -4 15 -10z"/>
<path d="M2260 3440 c0 -5 5 -10 11 -10 5 0 7 5 4 10 -3 6 -8 10 -11 10 -2 0
-4 -4 -4 -10z"/>
<path d="M1510 3429 c0 -5 5 -7 10 -4 6 3 10 8 10 11 0 2 -4 4 -10 4 -5 0 -10
-5 -10 -11z"/>
<path d="M2329 3423 c-13 -16 -12 -17 4 -4 9 7 17 15 17 17 0 8 -8 3 -21 -13z"/>
<path d="M1582 3408 c-14 -14 -16 -28 -3 -28 5 0 11 9 14 20 6 23 5 24 -11 8z"/>
<path d="M2275 3399 c-11 -17 -2 -18 19 -3 17 12 17 14 4 14 -9 0 -20 -5 -23
-11z"/>
<path d="M3121 3393 c0 -11 3 -13 6 -5 4 10 8 10 21 0 13 -11 14 -11 10 2 -7
23 -38 25 -37 3z"/>
<path d="M1670 2334 c0 -8 5 -12 10 -9 6 4 8 11 5 16 -9 14 -15 11 -15 -7z"/>
<path d="M1605 2300 c3 -5 11 -10 16 -10 6 0 7 5 4 10 -3 6 -11 10 -16 10 -6
0 -7 -4 -4 -10z"/>
<path d="M1797 1387 l-16 -47 30 0 c32 0 34 7 15 60 l-13 34 -16 -47z"/>
<path d="M1970 1401 c0 -40 1 -41 33 -41 45 0 59 12 55 46 -3 26 -7 29 -45 32
l-43 3 0 -40z"/>
<path d="M2480 1410 c0 -30 2 -31 38 -28 32 3 37 6 37 28 0 22 -5 25 -37 28
-36 3 -38 2 -38 -28z"/>
<path d="M2480 1310 c0 -31 4 -40 18 -40 35 0 62 13 67 32 9 28 -12 48 -51 48
-33 0 -34 -1 -34 -40z"/>
<path d="M2660 1400 c0 -39 1 -40 35 -40 28 0 38 5 47 24 17 39 4 56 -42 56
l-40 0 0 -40z"/>
<path d="M2880 1443 c-25 -10 -30 -25 -30 -90 0 -51 3 -64 19 -73 54 -28 91 5
91 82 0 67 -32 99 -80 81z"/>
<path d="M2747 1002 c-45 -49 11 -111 77 -86 25 10 21 70 -6 88 -29 21 -51 20
-71 -2z"/>
</g>
</svg>
